<svg xmlns="http://www.w3.org/2000/svg" xmlns:xlink="http://www.w3.org/1999/xlink" viewBox="1639 -1553 48 48">
  <defs>
    <style>
      .cls-1, .cls-3 {
        fill: #fff;
      }

      .cls-1 {
        stroke: #707070;
      }

      .cls-2 {
        clip-path: url(#clip-path);
      }
    </style>
    <clipPath id="clip-path">
      <rect id="Rectangle_4" data-name="Rectangle 4" class="cls-1" width="48" height="48" transform="translate(691 1671)"/>
    </clipPath>
  </defs>
  <g id="Mask_Group_3" data-name="Mask Group 3" class="cls-2" transform="translate(948 -3224)">
    <g id="icon-instagram-W" transform="translate(691 1671)">
      <path id="Path_5" data-name="Path 5" class="cls-3" d="M24,0A24,24,0,1,0,48,24,24,24,0,0,0,24,0ZM38,32.54A5.454,5.454,0,0,1,32.54,38H15.46A5.454,5.454,0,0,1,10,32.54V15.46A5.454,5.454,0,0,1,15.46,10H32.54A5.454,5.454,0,0,1,38,15.46Z"/>
      <path id="Path_6" data-name="Path 6" class="cls-3" d="M52.506,22.053V24.1a1.47,1.47,0,0,1-1.46,1.47H49a1.472,1.472,0,0,1-1.48-1.46v-2.05a1.458,1.458,0,0,1,1.46-1.47l2.06-.01a1.472,1.472,0,0,1,1.47,1.47Z" transform="translate(-17.506 -7.583)"/>
      <path id="Path_7" data-name="Path 7" class="cls-3" d="M43.583,34.4V44.54a2.706,2.706,0,0,1-2.71,2.71H23.283a2.7,2.7,0,0,1-2.7-2.7V34.4a1.157,1.157,0,0,1,1.15-1.15h1.56a1.14,1.14,0,0,1,1.13,1.35,7.418,7.418,0,0,0,.1,3.4,7.839,7.839,0,0,0,15.37-1.91,6.925,6.925,0,0,0-.15-1.45,1.159,1.159,0,0,1,1.13-1.39h1.56A1.157,1.157,0,0,1,43.583,34.4Z" transform="translate(-7.583 -12.25)"/>
      <path id="Path_8" data-name="Path 8" class="cls-3" d="M40.593,34.836a4.97,4.97,0,1,1-9.94,0,4.9,4.9,0,0,1,.94-2.9,4.97,4.97,0,0,1,9,2.9Z" transform="translate(-11.293 -11.006)"/>
    </g>
  </g>
</svg>
