<?xml version="1.0" standalone="no"?>
<!DOCTYPE svg PUBLIC "-//W3C//DTD SVG 20010904//EN"
 "http://www.w3.org/TR/2001/REC-SVG-20010904/DTD/svg10.dtd">
<svg version="1.0" xmlns="http://www.w3.org/2000/svg"
 width="188.000000pt" height="188.000000pt" viewBox="0 0 188.000000 188.000000"
 preserveAspectRatio="xMidYMid meet">
<metadata>
Created by potrace 1.11, written by Peter Selinger 2001-2013
</metadata>
<g transform="translate(0.000000,188.000000) scale(0.100000,-0.100000)"
fill="#000000" stroke="none">
<path d="M841 1858 c-311 -32 -591 -228 -734 -513 -20 -39 -42 -90 -50 -115
-22 -66 -49 -202 -42 -209 4 -3 90 -6 192 -6 141 0 187 3 190 12 11 27 21 11
19 -27 -3 -45 -13 -61 -26 -40 -7 11 -44 13 -189 12 -100 0 -185 -3 -189 -6
-6 -4 -7 -26 -3 -68 1 -12 381 -10 381 2 0 6 30 10 69 10 67 0 69 -1 72 -27 9
-67 4 -73 -67 -73 -50 0 -64 3 -64 15 0 9 -10 15 -22 16 -30 1 -328 1 -351 0
-21 -1 -18 -26 14 -151 91 -343 382 -613 731 -677 23 -4 106 -7 183 -7 166 1
250 20 390 88 241 116 415 322 488 577 35 121 41 169 22 170 -8 0 -92 1 -185
1 -150 1 -172 -1 -183 -16 -10 -14 -25 -16 -77 -14 l-64 3 -1 35 c-1 19 0 41
3 48 5 15 142 17 142 2 0 -6 70 -10 190 -10 l190 0 1 23 c0 12 2 30 4 40 3 15
-6 17 -78 17 -277 2 -300 1 -307 -11 -12 -19 -31 0 -26 27 3 13 0 24 -5 24 -5
0 -9 -13 -9 -29 0 -24 -4 -28 -25 -28 -24 0 -25 2 -25 68 l0 69 25 -16 c14 -9
25 -25 25 -35 0 -11 5 -19 11 -19 5 0 7 5 4 10 -3 6 -1 10 5 10 6 0 13 -6 16
-13 3 -10 48 -12 189 -12 101 0 186 3 189 6 10 9 -20 147 -48 227 -97 277
-342 504 -628 582 -123 33 -221 41 -347 28z m283 -382 c120 -46 199 -107 266
-206 39 -58 94 -184 88 -202 -6 -16 -102 84 -117 120 -12 28 -18 32 -52 32
-34 0 -40 -4 -55 -35 -61 -129 -282 -194 -458 -135 -72 24 -141 77 -171 134
-17 31 -24 36 -56 36 -32 0 -38 -4 -50 -32 -16 -40 -101 -127 -107 -110 -7 21
28 109 69 172 78 121 204 212 335 244 91 22 224 14 308 -18z m-474 -445 c0
-74 -2 -81 -20 -81 -21 0 -21 1 -21 100 0 28 0 64 0 81 l1 32 20 -26 c16 -20
20 -40 20 -106z m620 24 c0 -98 -1 -105 -20 -105 -22 0 -22 -1 -21 93 0 48 6
75 18 92 10 13 19 25 21 25 1 0 2 -47 2 -105z m118 -25 c-3 -67 -5 -75 -23
-75 -18 0 -20 7 -20 103 l0 104 22 -29 c20 -24 23 -38 21 -103z m-856 55 c-2
-142 -1 -137 -19 -133 -15 3 -18 15 -19 78 -1 51 4 82 14 98 20 31 25 23 24
-43z m-56 -121 c-3 -8 -14 -14 -25 -14 -16 0 -20 8 -23 51 -3 45 0 53 22 69
l25 19 3 -56 c2 -31 1 -62 -2 -69z m225 105 c25 -18 29 -27 29 -69 l0 -49 -34
1 -34 1 1 69 c0 37 2 68 5 68 2 0 17 -9 33 -21z m511 -81 c-4 -33 -6 -36 -35
-35 -29 2 -31 4 -33 47 -2 40 1 47 30 65 l31 21 5 -31 c3 -16 3 -46 2 -67z
m-427 40 c19 -9 25 -19 25 -44 0 -31 -2 -33 -33 -32 -33 1 -34 3 -36 45 -1 46
4 50 44 31z m345 -33 c0 -43 -1 -45 -30 -45 -29 0 -33 5 -33 43 0 9 -4 17 -8
17 -5 0 -9 -13 -9 -28 0 -26 -3 -29 -32 -28 -28 1 -33 5 -33 26 0 21 6 26 40
31 22 4 51 12 65 18 39 15 40 14 40 -34z m-190 10 c27 2 30 0 30 -26 0 -26 -4
-29 -30 -29 -16 0 -31 5 -31 10 -1 6 -2 14 -3 19 -3 23 -16 21 -16 -2 0 -23
-4 -26 -33 -25 -27 1 -33 5 -35 26 -3 36 4 40 48 32 23 -4 54 -6 70 -5z m330
-145 l0 -50 -329 0 -330 0 -3 23 c-2 12 -1 34 1 50 l3 27 329 0 329 0 0 -50z
m163 -139 l28 -1 -38 -72 c-93 -179 -278 -291 -478 -292 -153 0 -288 57 -393
165 -49 50 -126 174 -119 192 3 9 123 12 488 10 266 -1 497 -2 512 -2z"/>
</g>
</svg>
