<svg id="Group_82" data-name="Group 82" xmlns="http://www.w3.org/2000/svg" viewBox="0 0 32.797 32.797">
  <defs>
    <style>
      .cls-1 {
        fill: #fff;
      }
    </style>
  </defs>
  <path id="Path_48" data-name="Path 48" class="cls-1" d="M23.927,0H8.862A8.866,8.866,0,0,0,0,8.862V23.935A8.871,8.871,0,0,0,8.862,32.8H23.935A8.871,8.871,0,0,0,32.8,23.935V8.862A8.878,8.878,0,0,0,23.927,0Zm6.212,23.927a6.218,6.218,0,0,1-6.212,6.212H8.862A6.218,6.218,0,0,1,2.65,23.927V8.862A6.218,6.218,0,0,1,8.862,2.65H23.935a6.218,6.218,0,0,1,6.212,6.212V23.927Zm0,0"/>
  <path id="Path_49" data-name="Path 49" class="cls-1" d="M128.416,118.4a7.348,7.348,0,0,0-6.2-6.2,7.466,7.466,0,0,0-2.153,0,7.353,7.353,0,1,0,8.349,6.2Zm-6.588,5.732a4.7,4.7,0,1,1-1.377-9.3,4.977,4.977,0,0,1,.688-.048,4.889,4.889,0,0,1,.688.048,4.7,4.7,0,0,1,0,9.3Zm0,0" transform="translate(-104.681 -103.149)"/>
  <path id="Path_50" data-name="Path 50" class="cls-1" d="M294.057,85.184a1.32,1.32,0,0,0-.937-.384,1.354,1.354,0,0,0-.937.384,1.32,1.32,0,0,0-.384.937,1.354,1.354,0,0,0,.384.937,1.306,1.306,0,0,0,.937.384,1.355,1.355,0,0,0,.937-.384,1.32,1.32,0,0,0,.384-.937,1.275,1.275,0,0,0-.384-.937Zm0,0" transform="translate(-268.441 -78.012)"/>
</svg>
