<svg xmlns="http://www.w3.org/2000/svg" viewBox="0 0 32.797 31.339">
  <defs>
    <style>
      .cls-1 {
        fill: #fff;
      }
    </style>
  </defs>
  <g id="Group_81" data-name="Group 81" transform="translate(-159 3)">
    <path id="Path_47" data-name="Path 47" class="cls-1" d="M32.8,19.215V31.339H25.763V20.025c0-2.84-1.02-4.785-3.565-4.785a3.833,3.833,0,0,0-3.6,2.573,4.892,4.892,0,0,0-.229,1.716V31.339H11.333s.1-19.158,0-21.15h7.034v2.993c-.019.019-.029.048-.048.067h.048v-.067a6.983,6.983,0,0,1,6.338-3.5c4.623.01,8.092,3.031,8.092,9.531ZM3.975,0a3.665,3.665,0,1,0-.086,7.31h.048A3.667,3.667,0,1,0,3.975,0ZM.419,31.339H7.444V10.189H.419Zm0,0" transform="translate(159 -3)"/>
  </g>
</svg>
