<svg xmlns="http://www.w3.org/2000/svg" viewBox="0 0 32.796 32.812">
  <defs>
    <style>
      .cls-1 {
        fill: #fff;
      }
    </style>
  </defs>
  <path id="Path_51" data-name="Path 51" class="cls-1" d="M28.39,0H4.423A4.426,4.426,0,0,0,0,4.423V28.39a4.426,4.426,0,0,0,4.423,4.423H16.246l.024-11.727H13.22a.728.728,0,0,1-.722-.714l-.016-3.78a.719.719,0,0,1,.722-.722h3.042V12.216c0-4.238,2.585-6.55,6.365-6.55h3.1a.725.725,0,0,1,.722.722V9.576a.725.725,0,0,1-.722.722h-1.9c-2.055,0-2.456.979-2.456,2.408v3.162h4.519a.719.719,0,0,1,.714.8l-.449,3.78a.72.72,0,0,1-.714.634H21.367l-.024,11.727h7.031A4.426,4.426,0,0,0,32.8,28.39V4.423A4.4,4.4,0,0,0,28.39,0Z"/>
</svg>
