<svg xmlns="http://www.w3.org/2000/svg" width="84.5" height="69.5"><path class="st0" d="M5.8 57.8H0V60h1.4v7.2H0v2.2h5.5v-2.2H3.8v-1.1h1.7c2.9 0 4.9-1.7 4.9-4.2-.1-2.5-1.9-4.1-4.6-4.1zm.1 6.1H3.8v-3.8h1.9c1.4 0 2.3.7 2.3 1.8s-.9 2-2.1 2zm25.5-6.1h5.2V60h-1.4v9.3h-1.9l-5.9-7v4.9h1.4v2.2h-5.2v-2.2H25V60h-1.4v-2.2h3.1l6.1 7.3V60h-1.4v-2.2zm5.6 0h10.7V62h-2.2v-1.9h-2v7.1h1.8v2.2h-6.1v-2.2h1.9v-7.1h-2V62H37v-4.2zm19.2 7.4h2.2v4.2h-9.8v-2.2H50V60h-1.4v-2.2h9.8V62h-2.2v-1.9h-3.9v2.5H56v2.2h-3.7v2.3h3.9v-1.9zm27-5.2v7.2h1.4v2.2h-5.2v-2.2h1.4v-2.4h-5v2.4h1.4v2.2H72v-2.2h1.4V60H72v-2.2h5.2V60h-1.4v2.6h5V60h-1.4v-2.2h5.2V60h-1.4zm-60.3 2.5c0 .2 0 .3.1.5h-2.5c0-.2-.1-.4-.1-.5-.3-1.2-1.3-2.2-2.5-2.5-1.9-.5-3.8.6-4.3 2.5 0 .2-.1.3-.1.5v.9h-2.4v-.5h2.2v-.3h-2.2c0-.2 0-.4.1-.5.5-2.4 2.4-4.3 4.8-4.8 3.2-.7 6.3 1.5 6.9 4.7zm-2.4.8H23v.5h-2.3v.3h2.2c0 .2 0 .4-.1.5-.5 2.8-3 4.9-5.9 4.9s-5.3-2-5.9-4.9c0-.2 0-.3-.1-.5h2.4c.2 1.8 1.7 3.1 3.5 3.1 1.6 0 3-1.1 3.4-2.6 0-.2.1-.3.1-.5v-.5c.2-.1.2-.2.2-.3zm44.7-5.7c1.3 0 2.5.3 3.5 1.1v-.8H71v4.7h-2.2v-.2c-.4-1.5-1.8-2.5-3.4-2.5s-3.1 1-3.5 2.6c0 .2-.1.4-.1.5v.9h-2.5v-.5h2.3v-.3h-2.3c0-.2 0-.4.1-.5.4-3 2.9-5 5.8-5zm3.4 7H71v.3c-.5 2.8-2.9 4.8-5.7 4.7-2.9.1-5.5-2-6-4.9 0-.2 0-.3-.1-.5h2.5c0 .2.1.4.1.5.4 1.6 1.9 2.6 3.5 2.6 1.5.1 2.9-1 3.2-2.5l.1-.2zM29.1 22.5V22h3.4v2.5h-3.1c0-.3-.1-.5-.1-.8h-8.8c0 .6.1 1.3.3 1.9C23 37.3 34.3 45 46 42.8c8.7-1.6 15.6-8.5 17.2-17.2.1-.6.2-1.3.3-1.9h-8.8c0 .3-.1.5-.1.8h-3.2V22h3.5v.6h8.7v-1.9h-8.7v.4H54v-2.3c.1.1.3.2.4.3 0 .2.1.3.1.5h8.7c0-.6 0-1.3-.1-1.9C61 6 49.8-1.8 38 .3 29.2 2 22.3 8.9 20.7 17.7c-.1.6-.2 1.3-.3 1.9h8.8c0-.2.1-.4.1-.5.2-.1.3-.2.5-.3V21h-.7v-.4h-8.7v1.8h8.7v.1zm2.2-1.4H30v-2.4c.5-.3.9-.7 1.3-1.1v3.5zm1.2 0h-.9v-3.8c.4-.4.7-.8.9-1.3v5.1zm6.2 13.4c-4.1-1.1-7.4-4.2-8.7-8.2h24c-2.2 6.3-8.8 10-15.3 8.2zm-4.5-10.1V22h15.4v2.5H34.2v-.1zm0-3.3V16c.3.5.6 1 1 1.4v3.8l-1-.1zm1.2 0v-3.5c.5.5 1 .9 1.6 1.2v2.4h-1.6v-.1zm1.9 0v-2.2c.5.2 1.1.4 1.6.6v1.7h-1.6v-.1zm1.9 0v-1.6c.5.1 1.1.2 1.6.3v1.3h-1.6zm1.8 0v-1.3c.3 0 .6.1.8 0h.8v1.3H41zm1.9 0v-1.3c.5-.1 1.1-.1 1.6-.2v1.6h-1.6v-.1zm1.9 0v-1.6c.6-.1 1.1-.3 1.6-.6v2.2h-1.6zm1.8 0v-2.3c.6-.3 1.2-.6 1.6-1.1v3.4h-1.6zm1.9 0v-3.7c.4-.4.8-.9 1.1-1.4v5.1h-1.1zm3.7 0h-1V16c.3.5.6 1 1 1.4v3.7zm1.6 0h-1.3v-3.5c.4.4.8.8 1.3 1.1v2.4zm-24.4-2.6c.1-.3.1-.5.2-.8 1.8-6.8 8.7-10.9 15.5-9.1 4.5 1.2 8 4.7 9.1 9.1.1.3.2.6.2 1-1.4-.8-2.6-2.1-3.1-3.7h-1.7c-1.1 2.9-4.1 4.5-7.7 4.5S35.3 18 34.2 15h-1.7c-.6 1.4-1.7 2.7-3.1 3.5z"/></svg>