<svg id="Group_112" data-name="Group 112" xmlns="http://www.w3.org/2000/svg" viewBox="0 0 300.583 76.021">
  <defs>
    <style>
      .cls-1 {
        fill: #fff;
      }
    </style>
  </defs>
  <g id="Group_77" data-name="Group 77" transform="translate(97.403 23.7)">
    <path id="Path_33" data-name="Path 33" class="cls-1" d="M219.051,71.021c7,0,11.685-4.068,11.685-10.124,0-5.819-4.447-9.7-11.022-9.7H205.9v5.2h3.359V73.623H205.9v5.2h13.246v-5.2h-4.21V71.069h4.116Zm.473-5.346h-4.589V56.593h4.589c3.311,0,5.535,1.75,5.535,4.3C225.059,63.831,222.883,65.676,219.524,65.676Z" transform="translate(-205.9 -50.68)"/>
    <path id="Path_34" data-name="Path 34" class="cls-1" d="M344.333,51.2v5.2h3.359V68.845L332.932,51.2H325.6v5.2h3.311V73.623H325.6v5.156h12.394V73.623h-3.311V61.891l14.334,16.888h4.4V56.4h3.359V51.2Z" transform="translate(-268.975 -50.68)"/>
    <path id="Path_35" data-name="Path 35" class="cls-1" d="M394.1,51.2v9.982h5.251V56.593h4.683v17.03h-4.447v5.156h14.618V73.623h-4.447V56.593h4.683v4.589h5.3V51.2Z" transform="translate(-305.07 -50.68)"/>
    <path id="Path_36" data-name="Path 36" class="cls-1" d="M476.253,61.182V51.2H452.6v5.2h3.359V73.623H452.6v5.156h23.653V68.845H471v4.541H461.73V67.9h8.894V62.506H461.73V56.593H471v4.589Z" transform="translate(-335.896 -50.68)"/>
    <path id="Path_37" data-name="Path 37" class="cls-1" d="M601.676,56.4V51.2H589.234v5.2h3.359v6.244h-12.11V56.4h3.311V51.2H571.4v5.2h3.359V73.623H571.4v5.156h12.394V73.623h-3.311V67.9h12.11v5.724h-3.359v5.156h12.442V73.623h-3.311V56.4Z" transform="translate(-398.496 -50.68)"/>
    <g id="Group_75" data-name="Group 75" transform="translate(26.397 0.047)">
      <path id="Path_38" data-name="Path 38" class="cls-1" d="M262.835,65.1h4.778c0-.189-.047-.426-.047-.615a2.7,2.7,0,0,1,.047-.615c0-.237.047-.473.047-.662a9.442,9.442,0,0,1,.237-1.23,8.483,8.483,0,0,1,16.415,0,11.266,11.266,0,0,1,.237,1.23h5.771a9.574,9.574,0,0,0-.189-1.23,14.325,14.325,0,0,0-28.194,0c-.095.426-.142.852-.189,1.23h5.3a3.349,3.349,0,0,0-.047.662h-5.3V65.1h1.135Z" transform="translate(-261.7 -50.2)"/>
      <path id="Path_39" data-name="Path 39" class="cls-1" d="M285.948,80.33h4.731V79.1h-5.771c0,.189.047.426.047.615a2.7,2.7,0,0,1-.047.615,4.141,4.141,0,0,1-.095.757,9.447,9.447,0,0,1-.237,1.23,8.438,8.438,0,0,1-16.321,0,11.265,11.265,0,0,1-.237-1.23H262.2a9.574,9.574,0,0,0,.189,1.23,14.346,14.346,0,0,0,28.194,0c.095-.426.142-.852.189-1.23h-5.44c.047-.237.047-.52.095-.757Z" transform="translate(-261.963 -65.429)"/>
    </g>
    <g id="Group_76" data-name="Group 76" transform="translate(142.249)">
      <path id="Path_40" data-name="Path 40" class="cls-1" d="M507.783,65.049h4.92c0-.189-.047-.426-.047-.615a2.7,2.7,0,0,1,.047-.615c0-.237.047-.473.047-.662a9.437,9.437,0,0,1,.237-1.23,8.385,8.385,0,0,1,8.326-6.244,7.976,7.976,0,0,1,8.089,5.961l.047.237.047.189h5.346V50.62h-5.487v2.034a13.228,13.228,0,0,0-8.326-2.555h-.095a14.193,14.193,0,0,0-14.192,11.732h.095v.047c-.047.426-.142.8-.189,1.23h5.44a3.356,3.356,0,0,0-.047.662H506.6V65h1.183Z" transform="translate(-506.6 -50.1)"/>
      <path id="Path_41" data-name="Path 41" class="cls-1" d="M535.384,84.393H529.47l-.047.189-.047.237a7.68,7.68,0,0,1-7.806,5.961,8.453,8.453,0,0,1-8.373-6.15,11.266,11.266,0,0,1-.237-1.23H507a11.05,11.05,0,0,0,.189,1.23h-.047a14.423,14.423,0,0,0,14.476,11.732h.095A13.587,13.587,0,0,0,535.431,85.1l.095-.426.047-.189h-.189Z" transform="translate(-506.811 -67.647)"/>
    </g>
  </g>
  <g id="Group_80" data-name="Group 80">
    <g id="Group_78" data-name="Group 78">
      <path id="Path_42" data-name="Path 42" class="cls-1" d="M12.678,76.9H0v1.656c0,.568,0,1.088.047,1.656H15.564c-.047-.568-.095-1.088-.095-1.656s.047-1.135.095-1.656H12.678Z" transform="translate(0 -40.522)"/>
      <path id="Path_43" data-name="Path 43" class="cls-1" d="M75.611,31.222a38.034,38.034,0,0,0-74.838,0C.584,32.31.442,33.4.3,34.533H15.864a25.636,25.636,0,0,1,.662-3.311A22.533,22.533,0,0,1,38.287,14.381c10.407,0,18.922,7,21.666,16.841a25.636,25.636,0,0,1,.662,3.311H76.084C75.942,33.445,75.8,32.31,75.611,31.222Z" transform="translate(-0.158)"/>
      <path id="Path_44" data-name="Path 44" class="cls-1" d="M130.938,80.211h12.583c0-.568.047-1.088.047-1.656s0-1.135-.047-1.656H128.1c.047.568.095,1.088.095,1.656s-.047,1.088-.095,1.656h2.838Z" transform="translate(-67.501 -40.522)"/>
      <path id="Path_45" data-name="Path 45" class="cls-1" d="M73.2,88.1H60.568a24.128,24.128,0,0,1-.662,3.311,22.421,22.421,0,0,1-43.332,0c-.284-1.088-.52-2.176-.71-3.311H.3c.095,1.135.284,2.223.473,3.311a38.019,38.019,0,0,0,74.744,0c.189-1.088.378-2.176.473-3.311H73.2Z" transform="translate(-0.158 -46.423)"/>
    </g>
    <g id="Group_79" data-name="Group 79" transform="translate(15.138 26.302)">
      <path id="Path_46" data-name="Path 46" class="cls-1" d="M77.792,63.405v-.852a12.707,12.707,0,0,1-6.339-6.907l-.047.047v-.047H68.378C66.533,60.8,61.093,63.5,54.849,63.5s-11.685-2.744-13.577-7.9l-.047.047V55.6h-2.98v.095A12.619,12.619,0,0,1,32,62.554v.852a15.619,15.619,0,0,0,1.514-.852v4.021H32v1.608h6.292v5.44h2.98v-5.44H68.426v5.44h2.98v-5.44h6.386V66.575H76.278V62.6c.52.237.993.52,1.514.8ZM36.258,66.528H33.94v-4.21a13.207,13.207,0,0,0,2.318-1.987Zm2.034,0H36.636V59.9a13.312,13.312,0,0,0,1.656-2.271Zm4.778,0h-1.8V57.492a13.127,13.127,0,0,0,1.8,2.46Zm3.311,0H43.5v-6.15a11.189,11.189,0,0,0,2.886,1.987Zm3.264,0H46.759V62.6a14.843,14.843,0,0,0,2.886.993Zm3.311,0H50.071V63.737a19.325,19.325,0,0,0,2.886.473Zm3.264,0H53.335V64.21c.473.047.993.095,1.514.095.473,0,.9-.047,1.372-.047Zm3.311,0H56.646V64.162a19.281,19.281,0,0,0,2.886-.426Zm3.264,0H59.911V63.642a14.842,14.842,0,0,0,2.886-.993Zm3.311,0H63.222V62.459a13.405,13.405,0,0,0,2.886-1.94Zm2.318,0H66.533V60.094a10.408,10.408,0,0,0,1.94-2.555v8.988Zm4.731,0h-1.75V57.492a14.226,14.226,0,0,0,1.75,2.413Zm2.744,0H73.582v-6.2A15.269,15.269,0,0,0,75.9,62.27Zm0,0" transform="translate(-32 -55.6)"/>
    </g>
    <rect id="Rectangle_57" data-name="Rectangle 57" class="cls-1" width="72.946" height="3.406" transform="translate(1.561 43.049)"/>
  </g>
</svg>
