<svg id="Group_7" data-name="Group 7" xmlns="http://www.w3.org/2000/svg" viewBox="0 0 110 21.362">
  <defs>
    <style>
      .cls-1 {
        fill: #00b9bd;
      }
    </style>
  </defs>
  <g id="Group_3" data-name="Group 3" transform="translate(25.469 4.727)">
    <path id="Path_1" data-name="Path 1" class="cls-1" d="M116.484,29.76c2.914,0,4.864-1.7,4.864-4.222,0-2.409-1.836-4.038-4.589-4.038H111v2.18h1.4v7.159H111V33h5.507V30.839h-1.721V29.76h1.7Zm.207-2.226h-1.9V23.749h1.9c1.377,0,2.295.711,2.295,1.79A2.031,2.031,0,0,1,116.69,27.535Z" transform="translate(-111 -21.293)"/>
    <path id="Path_2" data-name="Path 2" class="cls-1" d="M221.5,21.6v2.157h1.4V28.92l-6.149-7.32H213.7v2.157h1.4v7.159h-1.4v2.157h5.163V30.916h-1.377V26.028l5.943,7.044h1.859V23.757h1.377V21.6Z" transform="translate(-190.135 -21.371)"/>
    <path id="Path_3" data-name="Path 3" class="cls-1" d="M272.4,21.6v4.13h2.2v-1.9h1.95v7.09h-1.859v2.157h6.081V30.916h-1.836v-7.09h1.95v1.9h2.18V21.6Z" transform="translate(-235.366 -21.371)"/>
    <path id="Path_4" data-name="Path 4" class="cls-1" d="M332.521,25.73V21.6H322.7v2.157h1.377v7.159H322.7v2.157h9.821V28.92h-2.18v1.9h-3.878V28.529h3.717V26.281h-3.717V23.826h3.878v1.9Z" transform="translate(-274.125 -21.371)"/>
    <path id="Path_5" data-name="Path 5" class="cls-1" d="M437.1,23.757V21.6h-5.163v2.157h1.4V26.35h-5.048V23.757h1.377V21.6H424.5v2.157h1.4v7.159h-1.4v2.157h5.163V30.916h-1.377V28.529h5.048v2.386h-1.4v2.157H437.1V30.916H435.72V23.757Z" transform="translate(-352.566 -21.371)"/>
    <g id="Group_1" data-name="Group 1" transform="translate(11.014 0.023)">
      <path id="Path_6" data-name="Path 6" class="cls-1" d="M159.59,26.9h2c0-.092-.023-.161-.023-.252a.86.86,0,0,1,.023-.252c0-.092.023-.184.023-.275a4.339,4.339,0,0,1,.115-.528,3.519,3.519,0,0,1,6.815,0c.046.161.069.344.115.528h2.455c-.023-.184-.046-.344-.069-.528a5.974,5.974,0,0,0-11.748,0c-.023.161-.046.344-.069.528h2.226a1.117,1.117,0,0,0-.023.275H159.2v.5h.39Z" transform="translate(-159.154 -20.7)"/>
      <path id="Path_7" data-name="Path 7" class="cls-1" d="M168.958,46h2v-.5H168.5c0,.092.023.184.023.252A.86.86,0,0,1,168.5,46c0,.115-.023.207-.023.321a4.34,4.34,0,0,1-.115.528,3.512,3.512,0,0,1-3.4,2.616,3.655,3.655,0,0,1-3.534-3.144H159c.023.184.046.344.069.528a5.94,5.94,0,0,0,5.851,4.864,6.005,6.005,0,0,0,5.874-4.864,3.67,3.67,0,0,0,.069-.528h-2.226A1.514,1.514,0,0,0,168.66,46Z" transform="translate(-159 -39.81)"/>
    </g>
    <g id="Group_2" data-name="Group 2" transform="translate(59.199)">
      <path id="Path_8" data-name="Path 8" class="cls-1" d="M369.636,26.818H371.7c0-.092-.023-.161-.023-.252a.859.859,0,0,1,.023-.252c0-.092.023-.184.023-.275a4.234,4.234,0,0,1,.092-.528,3.475,3.475,0,0,1,3.465-2.593,3.341,3.341,0,0,1,3.373,2.478l.023.092.023.069h2.226V20.829h-2.272v.849a5.478,5.478,0,0,0-3.465-1.078h-.023a5.912,5.912,0,0,0-5.9,4.887h.023v.023c-.023.161-.046.344-.069.528h2.295a1.117,1.117,0,0,0-.023.275H369.2v.5h.436Z" transform="translate(-369.154 -20.6)"/>
      <path id="Path_9" data-name="Path 9" class="cls-1" d="M380.863,49.459h-2.455l-.023.069-.023.092a3.18,3.18,0,0,1-3.235,2.478,3.5,3.5,0,0,1-3.488-2.57,3.561,3.561,0,0,1-.115-.528H369c.023.184.046.344.069.5h-.023a6.027,6.027,0,0,0,6.035,4.887h.046a5.61,5.61,0,0,0,5.69-4.681l.023-.184.023-.092h0Z" transform="translate(-369 -42.484)"/>
    </g>
  </g>
  <g id="Group_6" data-name="Group 6">
    <g id="Group_4" data-name="Group 4">
      <path id="Path_10" data-name="Path 10" class="cls-1" d="M3.557,44.5H.023c0,.161-.023.321-.023.459a2.926,2.926,0,0,0,.023.459H4.36c0-.161-.023-.3-.023-.459s.023-.321.023-.459h-.8Z" transform="translate(0 -34.289)"/>
      <path id="Path_11" data-name="Path 11" class="cls-1" d="M21.356,8.765a10.682,10.682,0,0,0-21.018,0c-.046.3-.092.62-.138.941H4.537c.046-.321.115-.62.184-.941a6.3,6.3,0,0,1,12.207,0,6.2,6.2,0,0,1,.184.941h4.314A4.333,4.333,0,0,0,21.356,8.765Z" transform="translate(-0.154)"/>
      <path id="Path_12" data-name="Path 12" class="cls-1" d="M75.08,45.518h3.511V44.6H74.3c0,.161.023.321.023.459,0,.161-.023.321-.023.459h.78Z" transform="translate(-57.252 -34.366)"/>
      <path id="Path_13" data-name="Path 13" class="cls-1" d="M20.69,51H17.134c-.046.321-.115.642-.184.941a6.3,6.3,0,0,1-12.184,0A6.2,6.2,0,0,1,4.583,51H.2a6.644,6.644,0,0,0,.138.941,10.693,10.693,0,0,0,21.018,0c.069-.3.092-.62.138-.941h-.8Z" transform="translate(-0.154 -39.298)"/>
    </g>
    <g id="Group_5" data-name="Group 5" transform="translate(4.245 7.365)">
      <path id="Path_14" data-name="Path 14" class="cls-1" d="M31.372,34.326V34.1a3.537,3.537,0,0,1-1.79-1.95H29.56v-.023h-.826a3.8,3.8,0,0,1-3.809,2.226,3.773,3.773,0,0,1-3.809-2.226h-.023V32.1h-.826v.023A3.694,3.694,0,0,1,18.5,34.05v.229a2.7,2.7,0,0,0,.436-.252v1.124h-.413v.459H20.29v1.537h.826V35.611h7.641v1.537h.826V35.611h1.79v-.459h-.413V34.027a2.329,2.329,0,0,0,.413.3ZM19.693,35.2h-.642V34a3.7,3.7,0,0,0,.642-.551Zm.574,0h-.459V33.339a3.008,3.008,0,0,0,.459-.642Zm1.354,0h-.5V32.651a3.8,3.8,0,0,0,.5.688Zm.918,0h-.8V33.454a3.4,3.4,0,0,0,.8.574Zm.918,0h-.8V34.1a4.734,4.734,0,0,0,.8.275Zm.941,0h-.8v-.78a4.515,4.515,0,0,0,.8.138Zm.918,0h-.8v-.665a2.493,2.493,0,0,0,.413.023,2.226,2.226,0,0,0,.39-.023Zm.918,0h-.8v-.665c.275-.023.551-.069.8-.115Zm.941,0h-.8v-.8a4.734,4.734,0,0,0,.8-.275Zm.918,0h-.8V34.05a2.779,2.779,0,0,0,.8-.551Zm.665,0h-.551V33.385a3.453,3.453,0,0,0,.551-.711Zm1.308,0h-.482V32.651a4.647,4.647,0,0,0,.482.688Zm.78,0H30.2V33.454a4.8,4.8,0,0,0,.642.551Zm0,0" transform="translate(-18.5 -32.1)"/>
    </g>
    <rect id="Rectangle_1" data-name="Rectangle 1" class="cls-1" width="20.49" height="0.964" transform="translate(0.436 12.092)"/>
  </g>
</svg>
