<svg xmlns="http://www.w3.org/2000/svg" viewBox="1530.028 -1636 127.944 46.631">
  <defs>
    <style>
      .cls-1 {
        fill: #fff;
      }
    </style>
  </defs>
  <path id="logo" class="cls-1" d="M13.56,25.969a4.509,4.509,0,0,0-3.838-2.3,2.656,2.656,0,0,0-1.919.7,2.029,2.029,0,0,0-.576,1.407,1.722,1.722,0,0,0,.9,1.535c.384.255.768.384,2.111,1.088l3.2,1.6a12.913,12.913,0,0,1,3.773,2.495,6.645,6.645,0,0,1,1.983,4.989,8.946,8.946,0,0,1-2.366,6.141A9.616,9.616,0,0,1,9.275,46.63,9.262,9.262,0,0,1,3.455,44.9,10.484,10.484,0,0,1,0,39.977l5.118-2.431A7.081,7.081,0,0,0,6.588,40.1a3.839,3.839,0,0,0,2.75,1.023,3.769,3.769,0,0,0,2.558-.9,3.178,3.178,0,0,0,.9-2.111,2.9,2.9,0,0,0-.831-2.046,8.271,8.271,0,0,0-2.687-1.662l-2.3-1.088a13.31,13.31,0,0,1-3.709-2.3,5.871,5.871,0,0,1-1.919-4.541,8.406,8.406,0,0,1,2.238-5.757,8.675,8.675,0,0,1,6.588-2.558,8.426,8.426,0,0,1,4.989,1.407,9.244,9.244,0,0,1,3.07,3.326Zm17.716-.512V46.63H25.008V25.457H22.385V19.7h2.623V9.851h6.268V19.7h4.8v5.757h-4.8Zm22-7.292c-8.123,0-14.392,5.884-14.392,14.2A13.99,13.99,0,0,0,53.278,46.63,13.99,13.99,0,0,0,67.671,32.366C67.669,24.05,61.4,18.166,53.278,18.166Zm0,22.835c-4.925,0-8-3.391-8-8.571,0-6.141,4.03-8.636,8-8.636s8,2.495,8,8.636C61.273,37.611,58.2,41,53.278,41ZM74.039,19.7h6.268v2.431a10.843,10.843,0,0,1,2.623-2.238,7.239,7.239,0,0,1,3.838-.9,9.29,9.29,0,0,1,4.925,1.28L89.135,25.97a5.675,5.675,0,0,0-3.2-.96,4.883,4.883,0,0,0-3.9,1.472c-1.727,1.854-1.727,4.414-1.727,6.205V46.631H74.039V19.7ZM101.541,0V28.719L110.3,19.7h8.315L107.042,30.894,119.451,46.63H111.52l-8.828-11.513-1.151,1.151V46.63H95.273V0ZM123,12.272l.75-.76c1.021-1.03,1.793-1.82,2.44-2.62a7.277,7.277,0,0,0,1.7-3.562C128.263,2.682,126.707,0,123.013,0a6.109,6.109,0,0,0-4.347,1.733,7.238,7.238,0,0,0-1.986,3.756l-.216,1.159h4.259l.212-1.038A1.7,1.7,0,0,1,122.522,4.1c1.106,0,1.111.813,1.063,1.163a2.8,2.8,0,0,1-.737,1.39c-.623.754-1.628,1.806-1.919,2.108l-7.43,7.7h13.459V12.272Z" transform="translate(1530.028 -1636)"/>
</svg>
