<svg xmlns="http://www.w3.org/2000/svg" width="110" height="21.4"><path d="M31.2 4.9h-5.8v2.2h1.4v7.2h-1.4v2.2H31v-2.2h-1.7v-1.1H31c2.9 0 4.9-1.7 4.9-4.2-.1-2.4-1.9-4.1-4.7-4.1zm.2 6.1h-2.1V7.2h1.9c1.4 0 2.3.7 2.3 1.8-.1 1.1-1 2-2.1 2zm25.4-6H62v2.2h-1.4v9.3h-1.9l-5.9-7v4.9h1.4v2.2H49v-2.2h1.4V7.1H49V5h3.1l6.1 7.3V7.1h-1.4V5zm5.7 0h10.7v4.1H71V7.2h-2v7.1h1.8v2.2h-6.1v-2.2h1.9V7.2h-2v1.9h-2.2V5zm19.2 7.3h2.2v4.2H74v-2.2h1.4V7.1H74V5h9.8v4.1h-2.2V7.2h-3.9v2.5h3.7v2.2h-3.7v2.3h3.9v-1.9zm26.9-5.2v7.2h1.4v2.2h-5.2v-2.2h1.4v-2.4h-5v2.4h1.4v2.2h-5.2v-2.2h1.4V7.1h-1.4V5h5.2v2.2h-1.4v2.6h5V7.1h-1.4V5h5.2v2.2h-1.4zM48.4 9.6c0 .2 0 .3.1.5H46c0-.2-.1-.4-.1-.5-.3-1.2-1.3-2.2-2.5-2.5-1.9-.5-3.8.6-4.3 2.5 0 .2-.1.3-.1.5V11h-2.4v-.5h2.2v-.3h-2.2c0-.2 0-.4.1-.5.5-2.4 2.4-4.3 4.8-4.8 3.2-.6 6.3 1.5 6.9 4.7zm-2.4.8h2.5v.5h-2.3v.3h2.2c0 .2 0 .4-.1.5-.5 2.8-3 4.9-5.9 4.9-2.9 0-5.3-2-5.9-4.9 0-.2 0-.3-.1-.5h2.4c.2 1.8 1.7 3.1 3.5 3.1 1.6 0 3-1.1 3.4-2.6 0-.2.1-.3.1-.5v-.3-.2c.2-.1.2-.2.2-.3zm39.2.5h-.4v-.5H87v-.3h-2.3c0-.2 0-.4.1-.5.5-2.9 3-4.9 5.9-4.9 1.2 0 2.5.3 3.5 1.1V5h2.3v4.7h-2.2v-.2C93.8 8 92.4 7 90.8 7s-3.1 1-3.5 2.6c0 .2-.1.4-.1.5V11l-2-.1zm11.3.8zm-2.4 0h2.4V12c-.5 2.8-2.9 4.8-5.7 4.7-2.9.1-5.5-2-6-4.9 0-.2 0-.3-.1-.5h2.5c0 .2.1.4.1.5.4 1.6 1.9 2.6 3.5 2.6 1.5.1 2.9-1 3.2-2.5l.1-.2zm-73.6 0H17c0 .1-.1.3-.1.4h-1.6v-1.2H17v.3h4.3v-.9H17v.2h-.4V9.3c.1.1.1.1.2.1 0 .1 0 .2.1.3h4.3c0-.3 0-.6-.1-.9C20.1 3 14.6-.9 8.8.2 4.4 1 1 4.4.2 8.8c0 .3-.1.6-.1.9h4.3c0-.1 0-.2.1-.3.1 0 .2-.1.2-.1v1.1h-.4v-.2H0v1h4.3v-.3H6v1.2H4.5c0-.1-.1-.3-.1-.4H0c0 .3.1.6.1.9 1.1 5.8 6.7 9.6 12.5 8.5 4.3-.8 7.7-4.2 8.5-8.5.1-.3.1-.6.1-.9h-.7zm-6-1.2H14V8.7c.2-.2.4-.5.6-.7v2.5zm1.3 0h-.5V7.9c.1.2.3.5.5.7v1.9zm.1 0V8.7l.6.6v1.2h-.6zm-10.5 0h-.6V9.3l.6-.6v1.8zm.6 0h-.4V8.6c.1-.2.3-.4.4-.6v2.5zm0-3.1c-.3.7-.8 1.3-1.5 1.8 0-.1 0-.3.1-.4.9-3.4 4.3-5.4 7.7-4.5 2.2.6 4 2.3 4.5 4.5 0 .1.1.3.1.4-.7-.4-1.2-1-1.5-1.8h-.8c-.7 1.5-2.2 2.4-3.8 2.2-1.7.2-3.3-.7-3.9-2.2H6zm7.8 1.4v1.7H13V9.3c.3-.1.6-.3.8-.5zm-.9.6v1.1h-.8v-.8c.3-.1.6-.2.8-.3zm-.9.3v.8h-.8v-.7c.3 0 .5-.1.8-.1zm-.9.1v.7h-.8v-.7h.8zm-1 0v.6h-.8v-.7c.3.1.6.1.8.1zm-.9-.2v.8h-.8v-1c.3.1.5.2.8.2zm-.9-.3v1.2h-.8V8.7c.2.2.5.4.8.6zm-.9-.7v1.9h-.5V7.9c.1.3.3.5.5.7zm-.5 2.3h7.6v1.2H6.9v-1.2zm2.2 6.2a6 6 0 0 1-4.3-4h11.9c-1.1 3.1-4.4 4.9-7.6 4z"/></svg>
