<svg xmlns="http://www.w3.org/2000/svg" viewBox="0 0 84.531 63.538">
  <defs>
    <style>
      .cls-1 {
        fill: #fff;
      }
    </style>
  </defs>
  <g id="Group_7" data-name="Group 7" transform="translate(-25.469 47.879)">
    <g id="Group_3" data-name="Group 3" transform="translate(25.469 3.727)">
      <path id="Path_1" data-name="Path 1" class="cls-1" d="M116.484,29.76c2.914,0,4.864-1.7,4.864-4.222,0-2.409-1.836-4.038-4.589-4.038H111v2.18h1.4v7.159H111V33h5.507V30.839h-1.721V29.76h1.7Zm.207-2.226h-1.9V23.749h1.9c1.377,0,2.295.711,2.295,1.79A2.031,2.031,0,0,1,116.69,27.535Z" transform="translate(-111 -21.293)"/>
      <path id="Path_2" data-name="Path 2" class="cls-1" d="M221.5,21.6v2.157h1.4V28.92l-6.149-7.32H213.7v2.157h1.4v7.159h-1.4v2.157h5.163V30.916h-1.377V26.028l5.943,7.044h1.859V23.757h1.377V21.6Z" transform="translate(-190.135 -21.371)"/>
      <path id="Path_3" data-name="Path 3" class="cls-1" d="M272.4,21.6v4.13h2.2v-1.9h1.95v7.09h-1.859v2.157h6.081V30.916h-1.836v-7.09h1.95v1.9h2.18V21.6Z" transform="translate(-235.366 -21.371)"/>
      <path id="Path_4" data-name="Path 4" class="cls-1" d="M332.521,25.73V21.6H322.7v2.157h1.377v7.159H322.7v2.157h9.821V28.92h-2.18v1.9h-3.878V28.529h3.717V26.281h-3.717V23.826h3.878v1.9Z" transform="translate(-274.125 -21.371)"/>
      <path id="Path_5" data-name="Path 5" class="cls-1" d="M437.1,23.757V21.6h-5.163v2.157h1.4V26.35h-5.048V23.757h1.377V21.6H424.5v2.157h1.4v7.159h-1.4v2.157h5.163V30.916h-1.377V28.529h5.048v2.386h-1.4v2.157H437.1V30.916H435.72V23.757Z" transform="translate(-352.566 -21.371)"/>
      <g id="Group_1" data-name="Group 1" transform="translate(11.014 0.023)">
        <path id="Path_6" data-name="Path 6" class="cls-1" d="M159.59,26.9h2c0-.092-.023-.161-.023-.252a.86.86,0,0,1,.023-.252c0-.092.023-.184.023-.275a4.339,4.339,0,0,1,.115-.528,3.519,3.519,0,0,1,6.815,0c.046.161.069.344.115.528h2.455c-.023-.184-.046-.344-.069-.528a5.974,5.974,0,0,0-11.748,0c-.023.161-.046.344-.069.528h2.226a1.117,1.117,0,0,0-.023.275H159.2v.5h.39Z" transform="translate(-159.154 -20.7)"/>
        <path id="Path_7" data-name="Path 7" class="cls-1" d="M168.958,46h2v-.5H168.5c0,.092.023.184.023.252A.86.86,0,0,1,168.5,46c0,.115-.023.207-.023.321a4.34,4.34,0,0,1-.115.528,3.512,3.512,0,0,1-3.4,2.616,3.655,3.655,0,0,1-3.534-3.144H159c.023.184.046.344.069.528a5.94,5.94,0,0,0,5.851,4.864,6.005,6.005,0,0,0,5.874-4.864,3.67,3.67,0,0,0,.069-.528h-2.226A1.514,1.514,0,0,0,168.66,46Z" transform="translate(-159 -39.81)"/>
      </g>
      <g id="Group_2" data-name="Group 2" transform="translate(59.199)">
        <path id="Path_8" data-name="Path 8" class="cls-1" d="M369.636,26.818H371.7c0-.092-.023-.161-.023-.252a.859.859,0,0,1,.023-.252c0-.092.023-.184.023-.275a4.234,4.234,0,0,1,.092-.528,3.475,3.475,0,0,1,3.465-2.593,3.341,3.341,0,0,1,3.373,2.478l.023.092.023.069h2.226V20.829h-2.272v.849a5.478,5.478,0,0,0-3.465-1.078h-.023a5.912,5.912,0,0,0-5.9,4.887h.023v.023c-.023.161-.046.344-.069.528h2.295a1.117,1.117,0,0,0-.023.275H369.2v.5h.436Z" transform="translate(-369.154 -20.6)"/>
        <path id="Path_9" data-name="Path 9" class="cls-1" d="M380.863,49.459h-2.455l-.023.069-.023.092a3.18,3.18,0,0,1-3.235,2.478,3.5,3.5,0,0,1-3.488-2.57,3.561,3.561,0,0,1-.115-.528H369c.023.184.046.344.069.5h-.023a6.027,6.027,0,0,0,6.035,4.887h.046a5.61,5.61,0,0,0,5.69-4.681l.023-.184.023-.092h0Z" transform="translate(-369 -42.484)"/>
      </g>
    </g>
    <g id="Group_6" data-name="Group 6" transform="translate(45.793 -47.879)">
      <g id="Group_4" data-name="Group 4">
        <path id="Path_10" data-name="Path 10" class="cls-1" d="M7.179,44.5H.046c0,.324-.046.648-.046.926a5.905,5.905,0,0,0,.046.926H8.8c0-.324-.046-.6-.046-.926s.046-.648.046-.926H7.179Z" transform="translate(0 -23.889)"/>
        <path id="Path_11" data-name="Path 11" class="cls-1" d="M42.9,17.693a21.563,21.563,0,0,0-42.426,0c-.093.6-.185,1.251-.278,1.9H8.954c.093-.648.232-1.251.371-1.9a12.725,12.725,0,0,1,24.64,0,12.521,12.521,0,0,1,.371,1.9h8.707A8.746,8.746,0,0,0,42.9,17.693Z" transform="translate(-0.107)"/>
        <path id="Path_12" data-name="Path 12" class="cls-1" d="M75.875,46.453h7.086V44.6H74.3c0,.324.046.648.046.926,0,.324-.046.648-.046.926h1.575Z" transform="translate(-39.887 -23.943)"/>
        <path id="Path_13" data-name="Path 13" class="cls-1" d="M41.56,51H34.381c-.093.648-.232,1.3-.371,1.9a12.726,12.726,0,0,1-24.594,0A12.521,12.521,0,0,1,9.046,51H.2a13.412,13.412,0,0,0,.278,1.9,21.584,21.584,0,0,0,42.426,0c.139-.6.185-1.251.278-1.9H41.56Z" transform="translate(-0.107 -27.379)"/>
      </g>
      <g id="Group_5" data-name="Group 5" transform="translate(8.569 14.868)">
        <path id="Path_14" data-name="Path 14" class="cls-1" d="M44.483,36.593V36.13a7.14,7.14,0,0,1-3.613-3.937h-.046v-.046H39.157c-1.065,2.918-4.122,4.493-7.688,4.493s-6.623-1.528-7.689-4.493h-.046V32.1H22.066v.046A7.457,7.457,0,0,1,18.5,36.037V36.5a5.456,5.456,0,0,0,.88-.509V38.26h-.834v.926h3.566v3.1H23.78v-3.1H39.2v3.1h1.667v-3.1h3.613V38.26H43.65V35.991a4.7,4.7,0,0,0,.834.6Zm-23.575,1.76h-1.3V35.944a7.469,7.469,0,0,0,1.3-1.112Zm1.158,0H21.14V34.6a6.072,6.072,0,0,0,.926-1.3Zm2.733,0H23.78V33.212A7.667,7.667,0,0,0,24.8,34.6Zm1.853,0H25.031v-3.52a6.86,6.86,0,0,0,1.621,1.158Zm1.853,0H26.883V36.13a9.554,9.554,0,0,0,1.621.556Zm1.9,0H28.782V36.778a9.114,9.114,0,0,0,1.621.278Zm1.853,0H30.635V37.01a5.033,5.033,0,0,0,.834.046,4.492,4.492,0,0,0,.787-.046Zm1.853,0H32.488V37.01c.556-.046,1.112-.139,1.621-.232Zm1.9,0H34.386V36.732a9.557,9.557,0,0,0,1.621-.556Zm1.853,0H36.239V36.037a5.609,5.609,0,0,0,1.621-1.112Zm1.343,0H38.092V34.694A6.969,6.969,0,0,0,39.2,33.258Zm2.64,0h-.973V33.212a9.379,9.379,0,0,0,.973,1.389Zm1.575,0h-1.3v-3.52a9.7,9.7,0,0,0,1.3,1.112Zm0,0" transform="translate(-18.5 -32.1)"/>
      </g>
      <rect id="Rectangle_1" data-name="Rectangle 1" class="cls-1" width="41.36" height="1.945" transform="translate(0.88 24.409)"/>
    </g>
  </g>
</svg>
