<svg xmlns="http://www.w3.org/2000/svg" xmlns:xlink="http://www.w3.org/1999/xlink" viewBox="2962 -1682 168 168">
  <defs>
    <style>
      .cls-1 {
        fill: #fff;
        stroke: #707070;
      }

      .cls-2 {
        clip-path: url(#clip-path);
      }

      .cls-3, .cls-5 {
        fill: none;
      }

      .cls-3, .cls-4, .cls-5 {
        stroke: #000;
        stroke-linejoin: round;
        stroke-width: 6px;
      }

      .cls-3 {
        stroke-linecap: round;
      }
    </style>
    <clipPath id="clip-path">
      <rect id="Rectangle_11" data-name="Rectangle 11" class="cls-1" width="168" height="168" transform="translate(722 473)"/>
    </clipPath>
  </defs>
  <g id="Mask_Group_6" data-name="Mask Group 6" class="cls-2" transform="translate(2240 -2155)">
    <g id="icon-webDesign" transform="translate(722 473)">
      <path id="Path_24" data-name="Path 24" class="cls-3" d="M59,35V3H165V165H59V113"/>
      <path id="Path_25" data-name="Path 25" class="cls-3" d="M71,29V15h82V45H94"/>
      <rect id="Rectangle_13" data-name="Rectangle 13" class="cls-4" width="96" height="22" transform="translate(153 57) rotate(90)"/>
      <path id="Path_26" data-name="Path 26" class="cls-3" d="M89,57h30V85H84"/>
      <rect id="Rectangle_14" data-name="Rectangle 14" class="cls-4" width="28" height="48" transform="translate(119 97) rotate(90)"/>
      <rect id="Rectangle_15" data-name="Rectangle 15" class="cls-3" width="16" height="48" transform="translate(119 137) rotate(90)"/>
      <path id="Path_27" data-name="Path 27" class="cls-5" d="M72.46,41.45,51.24,62.66,3,110.91v42.42l48.24-48.24L76.7,79.63a5,5,0,1,0-7.02-7.12l8.44-8.43a5,5,0,1,0-7.08-7.07l8.49-8.49a5,5,0,1,0-7.071-7.071Z"/>
      <line id="Line_3" data-name="Line 3" class="cls-3" x1="16.515" y2="16.515" transform="translate(54.525 57.01)"/>
      <line id="Line_4" data-name="Line 4" class="cls-3" x1="16.515" y2="16.515" transform="translate(53.165 72.51)"/>
    </g>
  </g>
</svg>
